<svg xmlns="http://www.w3.org/2000/svg" width="57.983" height="57.983">
    <g data-name="Group 550">
        <path data-name="Union 4" d="M0 20.5A20.5 20.5 0 1 1 20.5 41 20.5 20.5 0 0 1 0 20.5zM13.585 4.128a17.831 17.831 0 1 0 6.915-1.4 17.7 17.7 0 0 0-6.915 1.4zm5.547 22.523v-4.784h-5.1a1.367 1.367 0 0 1 0-2.734h5.1v-4.784a1.367 1.367 0 0 1 2.734 0v4.784h5.1a1.367 1.367 0 1 1 0 2.734h-5.1v4.784a1.367 1.367 0 0 1-2.734 0z" transform="rotate(45 14.496 34.995)" style="fill:#ff3636"/>
    </g>
</svg>
