<svg xmlns="http://www.w3.org/2000/svg" width="57.984" height="57.984">
    <g data-name="Group 550">
        <path data-name="Union 4" d="M0 20.5A20.5 20.5 0 1 1 20.5 41 20.5 20.5 0 0 1 0 20.5zM13.586 4.128a17.824 17.824 0 1 0 6.915-1.4 17.7 17.7 0 0 0-6.915 1.4zm10.45 21.407a1.5 1.5 0 1 1 1.5 1.5 1.5 1.5 0 0 1-1.5-1.5zm-3.046-2.612-7.284-7.284a1.389 1.389 0 0 1 1.933-1.933l7.283 7.284a1.27 1.27 0 0 1-.157 1.776 1.482 1.482 0 0 1-1.031.452 1.035 1.035 0 0 1-.743-.295z" transform="rotate(45 14.495 34.996)" style="fill:#36d1ff"/>
    </g>
</svg>
