<svg xmlns="http://www.w3.org/2000/svg" width="21.823" height="26.571">
    <g data-name="Group 1609">
        <path data-name="Path 710" d="m3.085-15.361 1.193-2.489a11.283 11.283 0 0 0-2.095-.635A10.917 10.917 0 0 0 .038-18.7a10.631 10.631 0 0 0-4.221.838 10.784 10.784 0 0 0-3.44 2.323 10.892 10.892 0 0 0-2.317 3.453 10.709 10.709 0 0 0-.838 4.24 10.63 10.63 0 0 0 .851 4.24A11.1 11.1 0 0 0-7.579-.121a10.989 10.989 0 0 0 3.472 2.355 10.584 10.584 0 0 0 4.234.851 10.662 10.662 0 0 0 4.253-.851A10.969 10.969 0 0 0 7.858-.121 11.008 11.008 0 0 0 10.2-3.605a10.7 10.7 0 0 0 .844-4.24 1.512 1.512 0 0 0-.432-1.117 1.5 1.5 0 0 0-1.1-.432 1.4 1.4 0 0 0-1.06.432 1.55 1.55 0 0 0-.413 1.117 7.706 7.706 0 0 1-.619 3.072 7.979 7.979 0 0 1-1.7 2.52A7.911 7.911 0 0 1 3.206-.559a7.762 7.762 0 0 1-3.079.61 7.744 7.744 0 0 1-3.06-.609 7.818 7.818 0 0 1-2.513-1.695 7.943 7.943 0 0 1-1.688-2.52 7.776 7.776 0 0 1-.609-3.072 8.065 8.065 0 0 1 .6-3.117 7.855 7.855 0 0 1 1.663-2.526 7.747 7.747 0 0 1 2.476-1.695 7.593 7.593 0 0 1 3.047-.609 12.88 12.88 0 0 1 1.682.1 6.028 6.028 0 0 1 1.36.331zm-3.161 4.887a1.352 1.352 0 0 0 1.015-.406l4.913-4.964a1.539 1.539 0 0 0 .47-1.1 1.512 1.512 0 0 0-.47-1.1L.939-23.042a1.308 1.308 0 0 0-1.028-.444 1.378 1.378 0 0 0-1.035.444 1.488 1.488 0 0 0-.425 1.066 1.219 1.219 0 0 0 .114.54 1.774 1.774 0 0 0 .3.438l4.1 4.024-4.088 4.05a1.625 1.625 0 0 0-.317.438 1.219 1.219 0 0 0-.114.54 1.423 1.423 0 0 0 .43 1.046 1.423 1.423 0 0 0 1.048.426z" transform="translate(10.778 23.486)" style="fill:#36ffc0"/>
    </g>
</svg>
