<svg xmlns="http://www.w3.org/2000/svg" width="88" height="56" viewBox="0 0 88 56">
	<g>
		<g>
			<path fill="#0fb" d="M87.972.823c-23.772-2.67-33.043 9.915-33.043 9.915a32.2 32.2 0 0 0-14.058-2.863c-5.057 0-8.429.33-12.42 2.257-.286-.288-.423-.414-.465-.456C27.354 9 18.407-.8 15.7.055 12.885.919 1.108 9.142 0 23.8c0 0 .542 4.6 16.56-8.108 0 0 1.519.948 2.567 1.638-2.663 3.7-4.206 4.8-4.206 10.857C14.922 41.473 28.516 56 40.871 56c11.318 0 25.937-14.53 25.937-27.812 0-4.573-.822-4.663-2.311-7.844.316-.084.643-.168.971-.264C89.717 13.337 87.972.823 87.972.823zM25.2 28.857s7.911.7 12.51 11.655c-.026 0-15.497 2.761-12.51-11.655zM54.3 40.17c-5.605 3-8.6-.456-8.6-.456s4.7-7.694 12.039-7.8c.008.022 3.504 4.565-3.439 8.256z" transform="translate(0 -0.003) translate(0 0.003) translate(0 -0.003)" />
		</g>
	</g>
</svg>
