<svg width="150" height="16" viewBox="0 0 150 16" fill="none" xmlns="http://www.w3.org/2000/svg">
<path d="M15.4008 15.4446H6.77706C6.72567 15.4446 6.67107 15.4446 6.61326 15.4446C6.55544 15.4446 6.50727 15.4414 6.46872 15.435H6.36273C6.29207 15.4286 6.22141 15.4221 6.15075 15.4157C6.08652 15.4157 6.01907 15.4093 5.94841 15.3965H5.9195C5.88096 15.3965 5.82957 15.3933 5.76533 15.3869C5.70752 15.3869 5.67219 15.3805 5.65934 15.3677H5.6208C5.60153 15.3677 5.55335 15.3581 5.47627 15.3388C5.39919 15.326 5.30925 15.3068 5.20648 15.2812C5.1037 15.2555 4.99449 15.2267 4.87887 15.1947C4.76324 15.1626 4.65404 15.1306 4.55126 15.0985H4.52236C4.50308 15.0985 4.46133 15.0825 4.39709 15.0505C4.33928 15.0184 4.28789 14.996 4.24293 14.9832L4.25256 14.9928C3.94423 14.8839 3.67443 14.7557 3.44318 14.6083C3.21835 14.4609 3.03849 14.3424 2.90359 14.2527L2.75906 14.1373C2.74621 14.1373 2.73337 14.1309 2.72052 14.1181L2.53745 13.9643C2.43467 13.8938 2.36722 13.8458 2.3351 13.8201C2.30941 13.7881 2.2805 13.7561 2.24838 13.724L2.19057 13.6567C2.1713 13.6439 2.14239 13.6247 2.10385 13.5991C2.07173 13.567 2.05567 13.5446 2.05567 13.5318L2.00749 13.4741C1.37155 12.8397 0.886565 12.1348 0.552535 11.3594C0.218505 10.5841 0.041854 9.74781 0.022583 8.85068V8.71611C0.022583 8.56872 0.0257948 8.43095 0.0322185 8.30279C0.0450658 8.17463 0.0514895 8.0753 0.0514895 8.00481L0.061125 7.98559C0.061125 7.87024 0.0675486 7.76131 0.0803959 7.65878C0.0932432 7.55625 0.109302 7.46333 0.128573 7.38003C0.147844 7.29672 0.163903 7.23264 0.176751 7.18779C0.196022 7.13652 0.205657 7.10768 0.205657 7.10128C0.257047 6.87059 0.321283 6.6463 0.398367 6.42843C0.481875 6.21056 0.575018 5.99268 0.677796 5.77481L0.735609 5.66907C0.851235 5.45761 0.979708 5.24294 1.12103 5.02506C1.26877 4.80719 1.42615 4.59572 1.59317 4.39067C1.76661 4.18561 1.94968 3.99016 2.14239 3.80433C2.3351 3.61849 2.53745 3.45188 2.74943 3.3045H2.73979C2.88753 3.18915 3.04491 3.08022 3.21193 2.97769C3.38537 2.86875 3.59414 2.7534 3.83824 2.63165L3.84787 2.62204C3.86714 2.61563 3.88963 2.60922 3.91532 2.60281C3.94101 2.59 3.96671 2.57718 3.9924 2.56437L3.9635 2.57398C4.03416 2.53553 4.10161 2.50669 4.16584 2.48747C4.23008 2.46825 4.30395 2.43941 4.38746 2.40096L4.52236 2.34329C4.59944 2.31125 4.70222 2.276 4.83069 2.23756C4.95916 2.19911 5.06837 2.17988 5.1583 2.17988C5.17757 2.17988 5.22253 2.17027 5.29319 2.15105C5.36385 2.13182 5.42488 2.1158 5.47627 2.10299L5.457 2.1126C5.5662 2.08056 5.64007 2.06133 5.67861 2.05493C5.71716 2.04852 5.74285 2.04531 5.7557 2.04531C5.76212 2.04531 5.76212 2.04852 5.7557 2.05493C5.7557 2.05493 5.75891 2.05493 5.76533 2.05493C5.79745 2.05493 5.83921 2.05172 5.89059 2.04531C5.94841 2.0389 5.99016 2.02929 6.01586 2.01648L6.49763 1.98764C6.5169 1.98764 6.53296 1.98764 6.54581 1.98764C6.56508 1.98123 6.58435 1.97803 6.60362 1.97803H15.4008V15.4446ZM6.79633 10.7731C6.50727 10.7731 6.23426 10.7186 5.97731 10.6097C5.72679 10.4943 5.50839 10.3438 5.3221 10.1579C5.13582 9.97209 4.98807 9.75422 4.87887 9.5043C4.76967 9.25439 4.71507 8.99166 4.71507 8.71611C4.71507 8.44056 4.76967 8.17783 4.87887 7.92792C4.98807 7.678 5.13582 7.46013 5.3221 7.27429C5.50839 7.08205 5.72679 6.93146 5.97731 6.82253C6.22784 6.71359 6.49442 6.65912 6.77706 6.65912H14.0904V3.29489H6.77706C6.12827 3.29489 5.52123 3.39101 4.95595 3.58325H4.96559C4.41315 3.76908 3.91211 4.03822 3.46245 4.39067C3.01922 4.7367 2.64022 5.1372 2.32546 5.59218C2.01071 6.04715 1.76661 6.54378 1.59317 7.08205C1.42615 7.61392 1.34264 8.15861 1.34264 8.71611C1.34264 9.27361 1.42615 9.8183 1.59317 10.3502C1.76661 10.882 2.01071 11.3787 2.32546 11.84C2.64022 12.295 3.01922 12.6987 3.46245 13.0512C3.91211 13.3972 4.41315 13.6631 4.96559 13.849H4.95595C5.24502 13.9387 5.53729 14.0092 5.83278 14.0604C6.13469 14.1117 6.44945 14.1373 6.77706 14.1373H14.0904V7.59149H6.94086V9.84072H10.7083V10.7731H6.79633Z" fill="#36FFC0"/>
<path d="M28.1486 4.53485C28.1421 4.52203 28.1389 4.51562 28.1389 4.51562L28.1486 4.53485ZM22.8683 1.97803C23.0418 1.97803 23.1863 1.98444 23.3019 1.99725C23.424 2.00366 23.5171 2.00686 23.5814 2.00686L23.6006 2.01648C23.7869 2.01648 23.9925 2.04531 24.2173 2.10299C24.4421 2.15425 24.6637 2.21192 24.8821 2.276C25.0877 2.34008 25.3093 2.42018 25.547 2.51631C25.7847 2.60602 26.0159 2.72457 26.2407 2.87195C26.4206 2.9873 26.5812 3.09303 26.7225 3.18915C26.8703 3.27887 27.0052 3.38139 27.1272 3.49674L27.1176 3.48713C27.1368 3.49994 27.1561 3.51596 27.1754 3.53519C27.1947 3.548 27.2171 3.56723 27.2428 3.59286L27.3199 3.66015C27.4227 3.76908 27.4998 3.84598 27.5512 3.89084C27.6026 3.93569 27.67 3.99657 27.7535 4.07347L27.8017 4.13114C27.821 4.15036 27.8467 4.1792 27.8788 4.21765C27.9109 4.2561 27.943 4.29775 27.9751 4.3426C28.0072 4.38105 28.0394 4.4195 28.0715 4.45795C28.1036 4.48999 28.1293 4.51562 28.1486 4.53485L28.3413 4.76554C28.5982 5.11798 28.8231 5.49926 29.0158 5.90938C29.2085 6.31949 29.3498 6.7232 29.4397 7.1205H29.4301C29.4622 7.2807 29.4943 7.4377 29.5264 7.59149C29.5586 7.74529 29.5746 7.87665 29.5746 7.98559L29.5843 7.9952C29.6035 8.21948 29.6132 8.45979 29.6132 8.71611V11.6862H27.5993L31.3572 15.4446H22.7431L20.2378 12.9454V15.4446H14.2446V1.97803H22.8683ZM18.9274 7.59149V6.65912H22.8683C23.4272 6.65912 24.0182 6.96991 24.6413 7.59149H18.9274ZM15.555 3.29489V14.1373H18.9274V10.379H19.5248L23.273 14.1373H28.0522L24.2944 10.379H28.3027V8.71611C28.3027 8.22269 28.2353 7.74529 28.1004 7.28391C27.9719 6.82253 27.7888 6.38998 27.5512 5.98627C27.3135 5.58257 27.0276 5.21731 26.6936 4.89049C26.366 4.55727 25.9999 4.27532 25.5952 4.04463C25.1905 3.80753 24.7569 3.6249 24.2944 3.49674C23.8383 3.36217 23.3629 3.29489 22.8683 3.29489H15.555Z" fill="#36FFC0"/>
<path d="M41.8213 7.96637V9.46585H43.7195V15.4446H36.9458C36.6053 15.4446 36.2617 15.4221 35.9148 15.3773C35.5743 15.3324 35.2403 15.2587 34.9127 15.1562L34.932 15.1658C34.9063 15.1594 34.8806 15.1498 34.8549 15.137C34.8356 15.1306 34.8163 15.1242 34.7971 15.1178L34.7296 15.0985H34.7007C34.6814 15.0985 34.6461 15.0857 34.5947 15.0601C34.5497 15.0345 34.5273 15.0248 34.5273 15.0313H34.5369C34.5241 15.0313 34.5048 15.0248 34.4791 15.012H34.4887C34.2767 14.9287 34.0937 14.8486 33.9395 14.7717C33.7853 14.7012 33.644 14.6276 33.5155 14.5507C33.3871 14.4738 33.2618 14.3905 33.1398 14.3007C33.0241 14.211 32.8957 14.1085 32.7543 13.9932C32.7415 13.9932 32.7222 13.9835 32.6965 13.9643C32.6708 13.9387 32.6483 13.9163 32.6291 13.897L32.5809 13.849C32.5552 13.8233 32.5231 13.7977 32.4845 13.7721C32.446 13.74 32.4075 13.7112 32.3689 13.6856C32.3304 13.6535 32.2983 13.6247 32.2726 13.5991C32.2469 13.5734 32.234 13.551 32.234 13.5318L32.1762 13.4741C32.022 13.3203 31.8582 13.1537 31.6848 12.9743C31.5178 12.7948 31.3893 12.6122 31.2994 12.4264C31.1388 12.1765 30.9975 11.9362 30.8754 11.7055C30.7598 11.4748 30.657 11.2249 30.5671 10.9557C30.5157 10.7379 30.4675 10.5424 30.4225 10.3694C30.3776 10.1964 30.339 10.033 30.3069 9.87917C30.2748 9.71897 30.2491 9.55877 30.2298 9.39857C30.2106 9.23196 30.2009 9.04933 30.2009 8.85068V8.71611C30.2009 8.56872 30.2041 8.43095 30.2106 8.30279C30.2234 8.17463 30.2298 8.0753 30.2298 8.00481L30.2395 7.98559C30.2395 7.90869 30.2459 7.81898 30.2587 7.71645C30.2716 7.60751 30.2876 7.50819 30.3069 7.41848C30.3262 7.32235 30.3422 7.24546 30.3551 7.18779C30.3679 7.1237 30.3744 7.09487 30.3744 7.10128C30.4258 6.87059 30.4932 6.6463 30.5767 6.42843C30.6602 6.21056 30.7534 5.99268 30.8561 5.77481L30.914 5.66907C31.0167 5.47042 31.1259 5.27818 31.2416 5.09235C31.3572 4.90011 31.4857 4.72068 31.627 4.55407L31.8004 4.35222C31.8711 4.30095 31.9321 4.23687 31.9835 4.15997C32.0413 4.08308 32.1055 4.01579 32.1762 3.95812L32.1858 3.94851C32.2051 3.92288 32.2212 3.90045 32.234 3.88122C32.2533 3.862 32.279 3.84278 32.3111 3.82355L32.3015 3.83316C32.3143 3.82035 32.3239 3.81073 32.3304 3.80433C32.3432 3.79792 32.3561 3.78831 32.3689 3.77549L32.446 3.68898L32.7543 3.42946C32.87 3.33333 32.992 3.24042 33.1205 3.1507C33.2554 3.06099 33.3967 2.97128 33.5444 2.88157L33.6119 2.84312L33.6023 2.85273C33.6986 2.79506 33.7853 2.747 33.8624 2.70855C33.9395 2.66369 34.023 2.62524 34.1129 2.5932H34.1033C34.1932 2.54835 34.2767 2.5099 34.3538 2.47786C34.4373 2.44582 34.5401 2.40737 34.6622 2.36251H34.6429L34.6525 2.3529H34.6814C34.7264 2.34008 34.7842 2.32406 34.8549 2.30484C34.932 2.28562 34.9898 2.26639 35.0283 2.24717H35.0476C35.2274 2.20231 35.3559 2.17027 35.433 2.15105C35.5101 2.13182 35.5647 2.11901 35.5968 2.1126C35.6353 2.09978 35.6675 2.09337 35.6932 2.09337C35.7189 2.08697 35.7735 2.07735 35.857 2.06454C35.857 2.06454 35.873 2.06454 35.9051 2.06454C35.9437 2.06454 35.9822 2.06133 36.0208 2.05493C36.0657 2.04852 36.1043 2.04531 36.1364 2.04531C36.1749 2.0389 36.2006 2.02929 36.2135 2.01648H36.2038C36.3195 2.00366 36.4383 1.99405 36.5604 1.98764C36.6888 1.98123 36.8173 1.97803 36.9458 1.97803H43.7195V7.96637H41.8213ZM35.5101 7.25507C35.9019 6.85777 36.3805 6.65912 36.9458 6.65912H42.4091V3.29489H36.9458C36.3034 3.29489 35.6996 3.39101 35.1343 3.58325H35.1439C34.5915 3.76908 34.0905 4.03822 33.6408 4.39067C33.1976 4.7367 32.8186 5.1372 32.5038 5.59218C32.1891 6.04715 31.945 6.54378 31.7715 7.08205C31.5981 7.61392 31.5114 8.15861 31.5114 8.71611C31.5114 9.27361 31.5981 9.8183 31.7715 10.3502C31.945 10.882 32.1891 11.3787 32.5038 11.84C32.8186 12.295 33.1976 12.6987 33.6408 13.0512C34.0905 13.3972 34.5915 13.6631 35.1439 13.849H35.1343C35.4234 13.9387 35.7156 14.0092 36.0111 14.0604C36.3066 14.1117 36.6182 14.1373 36.9458 14.1373H42.4091V10.7731H36.965C36.3933 10.7731 35.8056 10.4623 35.2017 9.84072H40.5109V7.59149H35.1728L35.5101 7.25507Z" fill="#36FFC0"/>
<path d="M54.1933 7.96637V9.46585H56.0915V15.4446H49.3177C48.9773 15.4446 48.6336 15.4221 48.2867 15.3773C47.9463 15.3324 47.6123 15.2587 47.2846 15.1562L47.3039 15.1658C47.2782 15.1594 47.2525 15.1498 47.2268 15.137C47.2076 15.1306 47.1883 15.1242 47.169 15.1178L47.1016 15.0985H47.0727C47.0534 15.0985 47.0181 15.0857 46.9667 15.0601C46.9217 15.0345 46.8992 15.0248 46.8992 15.0313H46.9089C46.896 15.0313 46.8767 15.0248 46.8511 15.012H46.8607C46.6487 14.9287 46.4656 14.8486 46.3115 14.7717C46.1573 14.7012 46.016 14.6276 45.8875 14.5507C45.759 14.4738 45.6338 14.3905 45.5117 14.3007C45.3961 14.211 45.2676 14.1085 45.1263 13.9932C45.1135 13.9932 45.0942 13.9835 45.0685 13.9643C45.0428 13.9387 45.0203 13.9163 45.001 13.897L44.9529 13.849C44.9272 13.8233 44.895 13.7977 44.8565 13.7721C44.818 13.74 44.7794 13.7112 44.7409 13.6856C44.7023 13.6535 44.6702 13.6247 44.6445 13.5991C44.6188 13.5734 44.606 13.551 44.606 13.5318L44.5482 13.4741C44.394 13.3203 44.2302 13.1537 44.0568 12.9743C43.8897 12.7948 43.7613 12.6122 43.6713 12.4264C43.5107 12.1765 43.3694 11.9362 43.2474 11.7055C43.1318 11.4748 43.029 11.2249 42.939 10.9557C42.8877 10.7379 42.8395 10.5424 42.7945 10.3694C42.7495 10.1964 42.711 10.033 42.6789 9.87917C42.6468 9.71897 42.6211 9.55877 42.6018 9.39857C42.5825 9.23196 42.5729 9.04933 42.5729 8.85068V8.71611C42.5729 8.56872 42.5761 8.43095 42.5825 8.30279C42.5954 8.17463 42.6018 8.0753 42.6018 8.00481L42.6114 7.98559C42.6114 7.90869 42.6179 7.81898 42.6307 7.71645C42.6436 7.60751 42.6596 7.50819 42.6789 7.41848C42.6982 7.32235 42.7142 7.24546 42.7271 7.18779C42.7399 7.1237 42.7463 7.09487 42.7463 7.10128C42.7977 6.87059 42.8652 6.6463 42.9487 6.42843C43.0322 6.21056 43.1253 5.99268 43.2281 5.77481L43.2859 5.66907C43.3887 5.47042 43.4979 5.27818 43.6135 5.09235C43.7292 4.90011 43.8576 4.72068 43.9989 4.55407L44.1724 4.35222C44.243 4.30095 44.3041 4.23687 44.3555 4.15997C44.4133 4.08308 44.4775 4.01579 44.5482 3.95812L44.5578 3.94851C44.5771 3.92288 44.5931 3.90045 44.606 3.88122C44.6253 3.862 44.6509 3.84278 44.6831 3.82355L44.6734 3.83316C44.6863 3.82035 44.6959 3.81073 44.7023 3.80433C44.7152 3.79792 44.728 3.78831 44.7409 3.77549L44.818 3.68898L45.1263 3.42946C45.2419 3.33333 45.364 3.24042 45.4924 3.1507C45.6273 3.06099 45.7687 2.97128 45.9164 2.88157L45.9839 2.84312L45.9742 2.85273C46.0706 2.79506 46.1573 2.747 46.2344 2.70855C46.3115 2.66369 46.395 2.62524 46.4849 2.5932H46.4753C46.5652 2.54835 46.6487 2.5099 46.7258 2.47786C46.8093 2.44582 46.9121 2.40737 47.0341 2.36251H47.0149L47.0245 2.3529H47.0534C47.0984 2.34008 47.1562 2.32406 47.2268 2.30484C47.3039 2.28562 47.3617 2.26639 47.4003 2.24717H47.4195C47.5994 2.20231 47.7279 2.17027 47.805 2.15105C47.882 2.13182 47.9366 2.11901 47.9688 2.1126C48.0073 2.09978 48.0394 2.09337 48.0651 2.09337C48.0908 2.08697 48.1454 2.07735 48.2289 2.06454C48.2289 2.06454 48.245 2.06454 48.2771 2.06454C48.3156 2.06454 48.3542 2.06133 48.3927 2.05493C48.4377 2.04852 48.4762 2.04531 48.5084 2.04531C48.5469 2.0389 48.5726 2.02929 48.5854 2.01648H48.5758C48.6914 2.00366 48.8103 1.99405 48.9323 1.98764C49.0608 1.98123 49.1893 1.97803 49.3177 1.97803H56.0915V7.96637H54.1933ZM47.882 7.25507C48.2739 6.85777 48.7525 6.65912 49.3177 6.65912H54.7811V3.29489H49.3177C48.6754 3.29489 48.0715 3.39101 47.5063 3.58325H47.5159C46.9635 3.76908 46.4624 4.03822 46.0128 4.39067C45.5695 4.7367 45.1905 5.1372 44.8758 5.59218C44.561 6.04715 44.3169 6.54378 44.1435 7.08205C43.97 7.61392 43.8833 8.15861 43.8833 8.71611C43.8833 9.27361 43.97 9.8183 44.1435 10.3502C44.3169 10.882 44.561 11.3787 44.8758 11.84C45.1905 12.295 45.5695 12.6987 46.0128 13.0512C46.4624 13.3972 46.9635 13.6631 47.5159 13.849H47.5063C47.7953 13.9387 48.0876 14.0092 48.3831 14.0604C48.6786 14.1117 48.9901 14.1373 49.3177 14.1373H54.7811V10.7731H49.337C48.7653 10.7731 48.1775 10.4623 47.5737 9.84072H52.8829V7.59149H47.5448L47.882 7.25507Z" fill="#36FFC0"/>
<path d="M61.8535 7.98559C61.8535 7.992 61.8567 7.9952 61.8631 7.9952C61.8567 7.98879 61.8535 7.98559 61.8535 7.98559ZM62.422 8.51426V8.52387C62.4284 8.52387 62.4316 8.52066 62.4316 8.51426H62.422ZM54.9449 1.97803H60.9478V2.01648C61.0377 2.01007 61.1308 2.00366 61.2272 1.99725C61.3236 1.98444 61.4167 1.97803 61.5066 1.97803H61.6897C61.9274 1.97803 62.1072 1.98123 62.2293 1.98764C62.3513 1.98764 62.4445 1.99405 62.5087 2.00686C62.5794 2.01327 62.6372 2.02288 62.6822 2.0357C62.7335 2.04852 62.8074 2.06454 62.9038 2.08376C62.9937 2.09658 63.1125 2.12221 63.2603 2.16066C63.408 2.19911 63.5622 2.23756 63.7228 2.276C63.7485 2.28882 63.7678 2.29523 63.7806 2.29523C64.0119 2.37212 64.2271 2.45543 64.4262 2.54514C64.6317 2.63486 64.8277 2.73418 65.0139 2.84312C65.2067 2.95205 65.3929 3.07381 65.5728 3.20838C65.7591 3.34295 65.9518 3.49354 66.1509 3.66015C66.2473 3.77549 66.3469 3.86841 66.4496 3.9389C66.5781 4.07347 66.7034 4.21124 66.8254 4.35222C66.9475 4.48679 67.0599 4.62136 67.1627 4.75592L67.1434 4.7367C67.1498 4.74311 67.153 4.74952 67.153 4.75592C67.153 4.75592 67.1562 4.75913 67.1627 4.76554L67.2108 4.82321C67.243 4.88729 67.2719 4.94496 67.2976 4.99623C67.3297 5.04108 67.3746 5.09876 67.4324 5.16924V5.15963C67.5224 5.28779 67.577 5.38071 67.5963 5.43838C67.6219 5.48965 67.6509 5.54412 67.683 5.60179V5.58257C67.7022 5.61461 67.7247 5.65946 67.7504 5.71713C67.7825 5.7684 67.8147 5.83889 67.8468 5.9286V5.91899C67.8789 5.99589 67.9046 6.06317 67.9239 6.12084C67.9431 6.17211 67.9592 6.21696 67.972 6.25541C67.9849 6.29386 67.9977 6.33231 68.0106 6.37076C68.0299 6.4028 68.0555 6.44125 68.0877 6.4861V6.51494C68.1134 6.61106 68.1391 6.70718 68.1647 6.8033C68.1904 6.89301 68.2129 6.97312 68.2322 7.0436C68.2515 7.10768 68.2643 7.16215 68.2707 7.20701C68.2772 7.24546 68.2804 7.25827 68.2804 7.24546C68.3125 7.41848 68.3414 7.59149 68.3671 7.76451C68.3992 7.93112 68.4217 8.11695 68.4345 8.32201V8.41813C68.441 8.45658 68.4442 8.50464 68.4442 8.56232C68.4442 8.61358 68.4442 8.66484 68.4442 8.71611V15.4446H62.4413V8.71611C62.4413 8.58795 62.4156 8.48221 62.3642 8.39891C62.3192 8.3092 62.271 8.23871 62.2197 8.18744C62.2068 8.18744 62.1875 8.18104 62.1618 8.16822C62.1361 8.149 62.1105 8.13298 62.0848 8.12016C62.0655 8.10093 62.0462 8.08491 62.0269 8.0721C62.0141 8.05287 62.0077 8.04326 62.0077 8.04326C61.982 8.03045 61.9563 8.02404 61.9306 8.02404C61.9049 8.01763 61.8824 8.00802 61.8631 7.9952H61.892C61.8792 7.9952 61.8471 7.992 61.7957 7.98559C61.7507 7.97277 61.7154 7.96637 61.6897 7.96637H61.6415C61.6094 7.96637 61.5709 7.97277 61.5259 7.98559C61.4874 7.992 61.4713 7.9952 61.4777 7.9952H61.5259C61.3717 8.02724 61.2625 8.0753 61.1983 8.13938C61.1405 8.20346 61.0891 8.27075 61.0441 8.34124V8.33162C61.0441 8.33803 61.0345 8.36687 61.0152 8.41813C60.9959 8.46299 60.9831 8.48862 60.9767 8.49503V8.47581C60.9703 8.48862 60.9638 8.51746 60.9574 8.56232C60.951 8.60076 60.9478 8.6328 60.9478 8.65844V15.4446H54.9449V1.97803ZM56.2553 14.1373H59.6277V8.71611C59.6277 8.44056 59.6823 8.17783 59.7915 7.92792C59.9007 7.678 60.0485 7.46013 60.2347 7.27429C60.4275 7.08846 60.6459 6.94108 60.89 6.83214C61.1405 6.71679 61.4071 6.65912 61.6897 6.65912C61.9659 6.65912 62.2293 6.71359 62.4798 6.82253C62.7303 6.93146 62.9487 7.08205 63.135 7.27429C63.3277 7.46013 63.4787 7.678 63.5879 7.92792C63.6971 8.17783 63.7517 8.44056 63.7517 8.71611V14.1373H67.1338V8.71611C67.1338 8.3893 67.1081 8.07851 67.0567 7.78374C67.0053 7.48256 66.9346 7.18779 66.8447 6.89942V6.90903C66.652 6.35794 66.379 5.86132 66.0257 5.41916C65.6724 4.97059 65.2677 4.58931 64.8116 4.27532C64.3619 3.96132 63.8673 3.72102 63.3277 3.55441C62.7946 3.38139 62.2486 3.29489 61.6897 3.29489C61.0666 3.29489 60.3793 3.41664 59.6277 3.66015V3.29489H56.2553V14.1373Z" fill="#36FFC0"/>
<path d="M86.0964 4.53485C86.09 4.52203 86.0868 4.51562 86.0868 4.51562L86.0964 4.53485ZM80.8161 1.97803C80.9896 1.97803 81.1341 1.98444 81.2497 1.99725C81.3718 2.00366 81.4649 2.00686 81.5292 2.00686L81.5484 2.01648C81.7347 2.01648 81.9403 2.04531 82.1651 2.10299C82.3899 2.15425 82.6116 2.21192 82.83 2.276C83.0355 2.34008 83.2571 2.42018 83.4948 2.51631C83.7325 2.60602 83.9637 2.72457 84.1886 2.87195C84.3684 2.9873 84.529 3.09303 84.6703 3.18915C84.8181 3.27887 84.953 3.38139 85.075 3.49674L85.0654 3.48713C85.0847 3.49994 85.1039 3.51596 85.1232 3.53519C85.1425 3.548 85.165 3.56723 85.1907 3.59286L85.2677 3.66015C85.3705 3.76908 85.4476 3.84598 85.499 3.89084C85.5504 3.93569 85.6178 3.99657 85.7013 4.07347L85.7495 4.13114C85.7688 4.15036 85.7945 4.1792 85.8266 4.21765C85.8587 4.2561 85.8908 4.29775 85.923 4.3426C85.9551 4.38105 85.9872 4.4195 86.0193 4.45795C86.0514 4.48999 86.0771 4.51562 86.0964 4.53485L86.2891 4.76554C86.5461 5.11798 86.7709 5.49926 86.9636 5.90938C87.1563 6.31949 87.2976 6.7232 87.3876 7.1205H87.3779C87.41 7.2807 87.4421 7.4377 87.4743 7.59149C87.5064 7.74529 87.5224 7.87665 87.5224 7.98559L87.5321 7.9952C87.5514 8.21948 87.561 8.45979 87.561 8.71611V11.6862H85.5472L89.305 15.4446H80.6909L78.1857 12.9454V15.4446H72.1924V1.97803H80.8161ZM76.8752 7.59149V6.65912H80.8161C81.375 6.65912 81.966 6.96991 82.5891 7.59149H76.8752ZM73.5028 3.29489V14.1373H76.8752V10.379H77.4726L81.2208 14.1373H86L82.2422 10.379H86.2506V8.71611C86.2506 8.22269 86.1831 7.74529 86.0482 7.28391C85.9197 6.82253 85.7367 6.38998 85.499 5.98627C85.2613 5.58257 84.9755 5.21731 84.6414 4.89049C84.3138 4.55727 83.9477 4.27532 83.543 4.04463C83.1383 3.80753 82.7047 3.6249 82.2422 3.49674C81.7861 3.36217 81.3108 3.29489 80.8161 3.29489H73.5028Z" fill="#36FFC0"/>
<path d="M94.1517 13.5798V15.4446H88.1488V8.71611C88.1488 8.38289 88.168 8.08491 88.2066 7.82218C88.2451 7.55945 88.2901 7.32556 88.3415 7.1205H88.3318C88.3832 6.90903 88.4442 6.69436 88.5149 6.47649C88.5856 6.25221 88.6755 6.03754 88.7847 5.83248L88.804 5.77481C88.926 5.52489 89.0705 5.27498 89.2376 5.02506C89.411 4.77515 89.6005 4.53485 89.8061 4.30416C90.0116 4.07347 90.23 3.85559 90.4613 3.65053C90.6925 3.43907 90.927 3.25323 91.1647 3.09303C91.2353 3.04818 91.306 3.00332 91.3766 2.95846C91.4537 2.9072 91.5276 2.86234 91.5983 2.82389L91.7813 2.72777C92.0511 2.58679 92.3498 2.45863 92.6774 2.34329C93.005 2.22153 93.3423 2.13503 93.6892 2.08376L93.6795 2.09337C93.9108 2.02929 94.1195 1.99405 94.3058 1.98764C94.4985 1.98123 94.6977 1.97803 94.9032 1.97803H103.527V15.4446H97.5241V13.5798H94.1517ZM92.8412 8.89874C92.8412 8.5527 92.8958 8.24191 93.005 7.96637C93.1142 7.69082 93.262 7.45692 93.4483 7.26468C93.641 7.07244 93.8594 6.92506 94.1035 6.82253C94.354 6.71359 94.6206 6.65912 94.9032 6.65912H98.8345V8.89874H92.8412ZM98.8345 12.2726V14.1373H102.217V3.29489H94.9032C93.4001 3.29489 92.1186 3.82355 91.0587 4.88088C89.9988 5.93821 89.4688 7.21662 89.4688 8.71611V14.1373H92.8412V12.2726H98.8345Z" fill="#36FFC0"/>
<path d="M111.312 9.43702L111.351 9.4274L111.303 9.43702H111.312ZM111.052 9.47546C111.136 9.47546 111.216 9.46265 111.293 9.43702H111.312C111.345 9.4242 111.373 9.40177 111.399 9.36973C111.431 9.33769 111.473 9.31526 111.524 9.30245L111.582 9.24477C111.614 9.21273 111.64 9.18069 111.659 9.14865C111.685 9.11661 111.711 9.07496 111.736 9.0237V9.03331C111.769 8.97564 111.791 8.89233 111.804 8.78339V8.72572C111.804 8.57834 111.775 8.4694 111.717 8.39891C111.666 8.32201 111.624 8.26114 111.592 8.21628L111.496 8.12977C111.483 8.11695 111.447 8.09773 111.39 8.0721C111.338 8.04006 111.296 8.01763 111.264 8.00481H111.245C111.239 7.99841 111.232 7.9952 111.226 7.9952C111.219 7.9952 111.213 7.992 111.206 7.98559V7.9952C111.142 7.98239 111.091 7.97598 111.052 7.97598H108.374V9.47546H111.052ZM102.371 0.122893H108.374V1.98764H111.052C111.476 1.98764 111.897 2.02609 112.315 2.10299C112.347 2.10299 112.379 2.10939 112.411 2.12221C112.443 2.13503 112.475 2.14464 112.507 2.15105L112.69 2.18949C112.819 2.22153 112.934 2.25358 113.037 2.28562C113.14 2.31125 113.236 2.33688 113.326 2.36251L113.346 2.37212C113.461 2.4298 113.59 2.48427 113.731 2.53553C113.872 2.58039 113.994 2.63806 114.097 2.70855C114.097 2.70214 114.12 2.71175 114.165 2.73738C114.21 2.76302 114.238 2.77904 114.251 2.78544L114.328 2.82389C114.457 2.89438 114.579 2.97128 114.695 3.05458C114.817 3.13148 114.926 3.20517 115.022 3.27566L115.128 3.35256C115.16 3.39741 115.196 3.43266 115.234 3.45829C115.273 3.47752 115.289 3.48392 115.282 3.47752C115.353 3.5416 115.42 3.59927 115.485 3.65053C115.549 3.7018 115.607 3.75306 115.658 3.80433L115.803 3.94851C116.072 4.21765 116.313 4.4964 116.525 4.78476C116.744 5.06672 116.933 5.36469 117.094 5.67869L117.152 5.78442C117.164 5.81646 117.184 5.86772 117.209 5.93821C117.235 6.0087 117.264 6.07919 117.296 6.14968C117.328 6.23298 117.367 6.3227 117.412 6.41882L117.441 6.47649C117.505 6.71359 117.559 6.92185 117.604 7.10128C117.656 7.27429 117.694 7.4409 117.72 7.60111C117.752 7.7549 117.775 7.9119 117.788 8.0721C117.8 8.22589 117.807 8.39891 117.807 8.59115V8.8699C117.807 8.95962 117.8 9.05574 117.788 9.15827C117.781 9.25439 117.778 9.3473 117.778 9.43702L117.749 9.57159C117.743 9.5844 117.736 9.61644 117.73 9.66771C117.723 9.71897 117.714 9.77985 117.701 9.85034C117.694 9.91442 117.685 9.9785 117.672 10.0426C117.665 10.1067 117.659 10.1579 117.653 10.1964C117.627 10.3053 117.592 10.4239 117.547 10.552C117.508 10.6802 117.47 10.8212 117.431 10.975L117.402 11.0615C117.383 11.1127 117.364 11.1608 117.344 11.2056C117.331 11.2441 117.315 11.2825 117.296 11.321V11.3114C117.168 11.6254 117.03 11.9073 116.882 12.1572C116.734 12.4072 116.577 12.6346 116.41 12.8397C116.358 12.891 116.32 12.9294 116.294 12.955C116.275 12.9743 116.255 12.9967 116.236 13.0223C116.217 13.0416 116.194 13.0704 116.169 13.1088C116.143 13.1473 116.098 13.205 116.034 13.2819L115.822 13.4837C115.475 13.8297 115.192 14.0765 114.974 14.2238C114.762 14.3648 114.627 14.4513 114.569 14.4834C114.396 14.5923 114.254 14.6724 114.145 14.7237C114.036 14.7813 113.949 14.8262 113.885 14.8582L113.702 14.9447C113.651 14.964 113.599 14.9832 113.548 15.0024C113.497 15.0281 113.452 15.0409 113.413 15.0409H113.432C113.413 15.0537 113.387 15.0633 113.355 15.0697C113.323 15.0825 113.297 15.0953 113.278 15.1082H113.259C113.227 15.121 113.195 15.1338 113.162 15.1466C113.137 15.1594 113.118 15.1658 113.105 15.1658C113.098 15.1594 113.095 15.1562 113.095 15.1562H113.105C112.976 15.1947 112.848 15.2299 112.719 15.2619C112.591 15.294 112.453 15.326 112.305 15.3581L112.324 15.3485C112.157 15.3933 111.958 15.4221 111.727 15.435C111.496 15.4478 111.271 15.4542 111.052 15.4542H102.371V0.122893ZM107.063 10.7827V6.66873H111.052C111.329 6.66873 111.592 6.7232 111.842 6.83214C112.093 6.94108 112.311 7.09166 112.498 7.28391C112.69 7.46974 112.841 7.68761 112.95 7.93753C113.06 8.18744 113.114 8.45017 113.114 8.72572C113.114 9.00127 113.06 9.264 112.95 9.51391C112.841 9.76383 112.694 9.9817 112.507 10.1675C112.321 10.3534 112.103 10.504 111.852 10.6193C111.602 10.7282 111.335 10.7827 111.052 10.7827H107.063ZM103.691 14.1469H111.052C111.38 14.1469 111.691 14.1213 111.987 14.07C112.289 14.0188 112.584 13.9483 112.873 13.8586H112.864C113.41 13.6727 113.908 13.4068 114.357 13.0608C114.807 12.7083 115.189 12.3046 115.504 11.8497C115.819 11.3883 116.063 10.8916 116.236 10.3598C116.41 9.82791 116.496 9.28322 116.496 8.72572C116.496 8.16822 116.41 7.62353 116.236 7.09166C116.063 6.55339 115.819 6.05676 115.504 5.60179C115.189 5.14682 114.807 4.74631 114.357 4.40028C113.908 4.04783 113.41 3.77869 112.864 3.59286H112.873C112.302 3.40062 111.695 3.3045 111.052 3.3045H107.063V1.43014H103.691V14.1469Z" fill="#36FFC0"/>
<path d="M125.592 9.43702L125.631 9.4274L125.583 9.43702H125.592ZM125.332 9.47546C125.416 9.47546 125.496 9.46265 125.573 9.43702H125.592C125.624 9.4242 125.653 9.40177 125.679 9.36973C125.711 9.33769 125.753 9.31526 125.804 9.30245L125.862 9.24477C125.894 9.21273 125.92 9.18069 125.939 9.14865C125.965 9.11661 125.991 9.07496 126.016 9.0237V9.03331C126.048 8.97564 126.071 8.89233 126.084 8.78339V8.72572C126.084 8.57834 126.055 8.4694 125.997 8.39891C125.946 8.32201 125.904 8.26114 125.872 8.21628L125.775 8.12977C125.762 8.11695 125.727 8.09773 125.669 8.0721C125.618 8.04006 125.576 8.01763 125.544 8.00481H125.525C125.518 7.99841 125.512 7.9952 125.506 7.9952C125.499 7.9952 125.493 7.992 125.486 7.98559V7.9952C125.422 7.98239 125.371 7.97598 125.332 7.97598H122.653V9.47546H125.332ZM116.651 0.122893H122.653V1.98764H125.332C125.756 1.98764 126.177 2.02609 126.594 2.10299C126.626 2.10299 126.659 2.10939 126.691 2.12221C126.723 2.13503 126.755 2.14464 126.787 2.15105L126.97 2.18949C127.099 2.22153 127.214 2.25358 127.317 2.28562C127.42 2.31125 127.516 2.33688 127.606 2.36251L127.625 2.37212C127.741 2.4298 127.869 2.48427 128.011 2.53553C128.152 2.58039 128.274 2.63806 128.377 2.70855C128.377 2.70214 128.399 2.71175 128.444 2.73738C128.489 2.76302 128.518 2.77904 128.531 2.78544L128.608 2.82389C128.737 2.89438 128.859 2.97128 128.974 3.05458C129.096 3.13148 129.206 3.20517 129.302 3.27566L129.408 3.35256C129.44 3.39741 129.475 3.43266 129.514 3.45829C129.552 3.47752 129.568 3.48392 129.562 3.47752C129.633 3.5416 129.7 3.59927 129.764 3.65053C129.829 3.7018 129.886 3.75306 129.938 3.80433L130.082 3.94851C130.352 4.21765 130.593 4.4964 130.805 4.78476C131.023 5.06672 131.213 5.36469 131.374 5.67869L131.431 5.78442C131.444 5.81646 131.463 5.86772 131.489 5.93821C131.515 6.0087 131.544 6.07919 131.576 6.14968C131.608 6.23298 131.647 6.3227 131.692 6.41882L131.72 6.47649C131.785 6.71359 131.839 6.92185 131.884 7.10128C131.936 7.27429 131.974 7.4409 132 7.60111C132.032 7.7549 132.054 7.9119 132.067 8.0721C132.08 8.22589 132.087 8.39891 132.087 8.59115V8.8699C132.087 8.95962 132.08 9.05574 132.067 9.15827C132.061 9.25439 132.058 9.3473 132.058 9.43702L132.029 9.57159C132.022 9.5844 132.016 9.61644 132.009 9.66771C132.003 9.71897 131.993 9.77985 131.981 9.85034C131.974 9.91442 131.965 9.9785 131.952 10.0426C131.945 10.1067 131.939 10.1579 131.932 10.1964C131.907 10.3053 131.871 10.4239 131.826 10.552C131.788 10.6802 131.749 10.8212 131.711 10.975L131.682 11.0615C131.663 11.1127 131.643 11.1608 131.624 11.2056C131.611 11.2441 131.595 11.2825 131.576 11.321V11.3114C131.447 11.6254 131.309 11.9073 131.162 12.1572C131.014 12.4072 130.856 12.6346 130.689 12.8397C130.638 12.891 130.6 12.9294 130.574 12.955C130.555 12.9743 130.535 12.9967 130.516 13.0223C130.497 13.0416 130.474 13.0704 130.449 13.1088C130.423 13.1473 130.378 13.205 130.314 13.2819L130.102 13.4837C129.755 13.8297 129.472 14.0765 129.254 14.2238C129.042 14.3648 128.907 14.4513 128.849 14.4834C128.676 14.5923 128.534 14.6724 128.425 14.7237C128.316 14.7813 128.229 14.8262 128.165 14.8582L127.982 14.9447C127.93 14.964 127.879 14.9832 127.828 15.0024C127.776 15.0281 127.731 15.0409 127.693 15.0409H127.712C127.693 15.0537 127.667 15.0633 127.635 15.0697C127.603 15.0825 127.577 15.0953 127.558 15.1082H127.539C127.507 15.121 127.474 15.1338 127.442 15.1466C127.417 15.1594 127.397 15.1658 127.384 15.1658C127.378 15.1594 127.375 15.1562 127.375 15.1562H127.384C127.256 15.1947 127.128 15.2299 126.999 15.2619C126.871 15.294 126.732 15.326 126.585 15.3581L126.604 15.3485C126.437 15.3933 126.238 15.4221 126.007 15.435C125.775 15.4478 125.55 15.4542 125.332 15.4542H116.651V0.122893ZM121.343 10.7827V6.66873H125.332C125.608 6.66873 125.872 6.7232 126.122 6.83214C126.373 6.94108 126.591 7.09166 126.777 7.28391C126.97 7.46974 127.121 7.68761 127.23 7.93753C127.339 8.18744 127.394 8.45017 127.394 8.72572C127.394 9.00127 127.339 9.264 127.23 9.51391C127.121 9.76383 126.973 9.9817 126.787 10.1675C126.601 10.3534 126.382 10.504 126.132 10.6193C125.881 10.7282 125.615 10.7827 125.332 10.7827H121.343ZM117.971 14.1469H125.332C125.66 14.1469 125.971 14.1213 126.267 14.07C126.569 14.0188 126.864 13.9483 127.153 13.8586H127.144C127.69 13.6727 128.187 13.4068 128.637 13.0608C129.087 12.7083 129.469 12.3046 129.784 11.8497C130.098 11.3883 130.343 10.8916 130.516 10.3598C130.689 9.82791 130.776 9.28322 130.776 8.72572C130.776 8.16822 130.689 7.62353 130.516 7.09166C130.343 6.55339 130.098 6.05676 129.784 5.60179C129.469 5.14682 129.087 4.74631 128.637 4.40028C128.187 4.04783 127.69 3.77869 127.144 3.59286H127.153C126.581 3.40062 125.974 3.3045 125.332 3.3045H121.343V1.43014H117.971V14.1469Z" fill="#36FFC0"/>
<path d="M130.93 15.4446V0.113281H136.924V15.4446H130.93ZM135.613 4.78476V1.42053H132.241V4.78476H135.613ZM135.613 14.1373V6.2458H132.241V14.1373H135.613Z" fill="#36FFC0"/>
<path d="M141.847 9.07176V9.06215V9.07176ZM135.844 9.68693C135.844 9.67412 135.841 9.6645 135.835 9.6581L135.844 9.68693ZM142.079 9.31206C142.091 9.32488 142.101 9.33449 142.107 9.3409C142.114 9.3473 142.12 9.35371 142.127 9.36012C142.127 9.3409 142.111 9.32488 142.079 9.31206ZM141.77 2.0357H146.829V7.96637H141.77L141.78 8.86029C141.793 8.92437 141.815 8.98845 141.847 9.05253V9.07176C141.847 9.08457 141.851 9.09098 141.857 9.09098L141.847 9.07176C141.86 9.08457 141.87 9.10059 141.876 9.11982C141.889 9.13904 141.905 9.15506 141.924 9.16788L142.127 9.37934V9.36012C142.127 9.36012 142.136 9.36653 142.156 9.37934C142.175 9.38575 142.197 9.39536 142.223 9.40818C142.249 9.41459 142.268 9.4242 142.281 9.43702C142.3 9.44342 142.31 9.44663 142.31 9.44663H142.3V9.43702C142.313 9.43702 142.332 9.44022 142.358 9.44663C142.384 9.45304 142.409 9.45944 142.435 9.46585H149.17V15.4446H142.512C142.364 15.4446 142.217 15.4446 142.069 15.4446C141.921 15.4446 141.786 15.4286 141.664 15.3965C141.504 15.3581 141.34 15.326 141.173 15.3004C141.006 15.2812 140.903 15.2652 140.865 15.2523C140.762 15.2267 140.669 15.2043 140.585 15.1851C140.502 15.1722 140.415 15.1498 140.325 15.1178C140.235 15.0921 140.132 15.0537 140.017 15.0024C139.907 14.9576 139.776 14.8967 139.622 14.8198L139.564 14.791C139.39 14.7012 139.201 14.6019 138.995 14.493C138.796 14.384 138.648 14.2783 138.552 14.1758L138.533 14.1662C138.321 13.9932 138.106 13.8105 137.887 13.6183C137.669 13.4196 137.47 13.205 137.29 12.9743C137.103 12.7948 136.936 12.5866 136.789 12.3495C136.647 12.106 136.525 11.8753 136.423 11.6574C136.397 11.6318 136.368 11.5837 136.336 11.5132C136.31 11.4427 136.284 11.3658 136.259 11.2825L136.268 11.3018C136.172 11.039 136.082 10.7763 135.999 10.5136C135.921 10.2444 135.867 9.95927 135.835 9.6581C135.822 9.61965 135.812 9.57479 135.806 9.52353C135.799 9.46585 135.796 9.421 135.796 9.38896V9.41779C135.783 9.35371 135.774 9.28002 135.767 9.19671C135.767 9.11341 135.767 9.04292 135.767 8.98525V0.113281H141.77V2.0357ZM140.45 1.42053H137.078V8.71611C137.078 10.2092 137.611 11.4876 138.677 12.5513C139.724 13.6087 141.003 14.1373 142.512 14.1373H147.86V10.7731H142.512C142.23 10.7731 141.963 10.7186 141.712 10.6097C141.462 10.4943 141.243 10.3438 141.057 10.1579C140.871 9.96568 140.723 9.74781 140.614 9.5043C140.505 9.25439 140.45 8.99166 140.45 8.71611V6.65912H145.518V3.34295H140.45V1.42053Z" fill="#36FFC0"/>
</svg>
