<svg width="85" height="52" viewBox="0 0 85 52" fill="none" xmlns="http://www.w3.org/2000/svg">
<path d="M84.7663 0.88463C73.7459 -1.6307 61.2769 2.51909 52.6054 10.3489C48.7957 8.52628 44.6378 7.54697 40.4151 7.47771C36.1925 7.40846 32.0046 8.25093 28.1372 9.94765C25.5423 6.41658 22.2844 3.4247 18.5456 1.13911C18.1907 0.917537 17.8135 0.733837 17.4202 0.591024C16.4276 0.188733 15.3395 0.0833322 14.2882 0.287621C13.2349 0.487778 12.2644 0.995176 11.4989 1.74591C5.29564 7.23594 1.37716 14.8529 0.517578 23.0919C6.48348 21.7426 11.8955 18.6047 16.0304 14.0974C17.1236 14.9491 18.2675 15.7336 19.4559 16.4464C17.1112 19.0797 15.7549 22.4462 15.6193 25.9694C15.6193 34.6996 27.2759 51.6708 39.9602 51.6708C52.6445 51.6708 64.2914 34.6996 64.2914 25.9694C64.228 23.2663 63.3925 20.6378 61.8837 18.3941C71.5133 15.7864 79.7319 9.49768 84.7663 0.88463ZM23.8015 26.9285C29.2335 26.4783 33.5888 30.0898 36.525 37.7826C27.5794 40.7384 23.4981 34.2005 23.8015 26.9285ZM43.5914 37.949C46.5275 31.832 50.9122 28.9447 56.3148 29.3166C56.6182 35.0813 52.5565 40.2882 43.5914 37.949Z" fill="#00F5B4"/>
</svg>
