<svg width="21" height="17" viewBox="0 0 21 17" fill="none" xmlns="http://www.w3.org/2000/svg">
<path d="M12.4095 0.000643076C12.2611 -0.00437381 12.1131 0.0200244 11.9744 0.0723998C11.8357 0.124775 11.709 0.20407 11.6017 0.305619C11.4976 0.40318 11.4154 0.521293 11.3605 0.652296C11.3055 0.783298 11.279 0.924266 11.2826 1.06606C11.2815 1.21703 11.3118 1.36661 11.3715 1.50554C11.4284 1.63878 11.5107 1.75996 11.6138 1.86246L14.1219 4.39282L17.61 7.52914L14.9673 7.37465L1.12244 7.37465C0.973562 7.36942 0.825161 7.39423 0.686288 7.44758C0.547416 7.50093 0.420981 7.5817 0.31469 7.68496C0.20917 7.79233 0.126923 7.91988 0.0729859 8.0598C0.0190485 8.19972 -0.00544302 8.34906 0.00101235 8.49867C-0.00427929 8.64595 0.0208032 8.79275 0.074732 8.93013C0.128661 9.06751 0.210306 9.19258 0.31469 9.29773C0.420981 9.40099 0.547416 9.48176 0.686288 9.53511C0.825161 9.58845 0.973562 9.61327 1.12244 9.60803L14.9673 9.60803L17.5993 9.45488L14.1259 12.5952L11.6179 15.1256C11.5147 15.2281 11.4324 15.3492 11.3755 15.4825C11.3158 15.6214 11.2856 15.771 11.2867 15.922C11.2822 16.0656 11.3083 16.2086 11.3633 16.3417C11.4183 16.4747 11.5009 16.5949 11.6057 16.6944C11.713 16.7959 11.8397 16.8752 11.9785 16.9276C12.1172 16.98 12.2651 17.0044 12.4135 16.9994C12.5581 16.9988 12.7011 16.9689 12.8335 16.9115C12.9894 16.841 13.1315 16.7441 13.2536 16.6251L20.6216 9.32969C20.7409 9.22585 20.8364 9.09798 20.9016 8.95465C20.9669 8.81133 21.0004 8.65586 20.9999 8.49867C21.002 8.34123 20.9692 8.18526 20.9038 8.04169C20.8385 7.89813 20.7422 7.77046 20.6216 7.66764L13.2172 0.342909C13.004 0.128005 12.7138 0.00500501 12.4095 0.000643076V0.000643076Z" fill="white"/>
</svg>
