<svg width="21" height="17" viewBox="0 0 21 17" fill="none" xmlns="http://www.w3.org/2000/svg">
<path d="M8.59055 0.000642776C8.73894 -0.00437355 8.88685 0.0200253 9.02557 0.0723991C9.1643 0.124775 9.29102 0.204069 9.3983 0.305618C9.50238 0.403181 9.58457 0.521294 9.63953 0.652296C9.6945 0.783298 9.72101 0.924267 9.71737 1.06606C9.71847 1.21703 9.68823 1.36661 9.62851 1.50554C9.57162 1.63878 9.48935 1.75996 9.38619 1.86246L6.87811 4.39282L3.38996 7.52914L6.03266 7.37465L19.8776 7.37465C20.0264 7.36942 20.1748 7.39423 20.3137 7.44758C20.4526 7.50093 20.579 7.5817 20.6853 7.68496C20.7908 7.79233 20.8731 7.91988 20.927 8.0598C20.981 8.19972 21.0054 8.34906 20.999 8.49867C21.0043 8.64595 20.9792 8.79275 20.9253 8.93013C20.8713 9.06751 20.7897 9.19258 20.6853 9.29773C20.579 9.40099 20.4526 9.48176 20.3137 9.53511C20.1748 9.58845 20.0264 9.61327 19.8776 9.60803L6.03266 9.60803L3.40073 9.45488L6.87407 12.5952L9.38215 15.1256C9.48531 15.2281 9.56758 15.3492 9.62447 15.4825C9.68419 15.6214 9.71443 15.771 9.71333 15.922C9.71776 16.0656 9.69165 16.2086 9.63669 16.3417C9.58173 16.4747 9.49914 16.5949 9.39426 16.6944C9.28699 16.7959 9.16026 16.8752 9.02154 16.9276C8.88282 16.98 8.73491 17.0044 8.58651 16.9994C8.4419 16.9988 8.29894 16.9689 8.16648 16.9115C8.01063 16.841 7.86847 16.7441 7.74645 16.6251L0.37839 9.32969C0.259102 9.22585 0.163636 9.09798 0.0983907 8.95465C0.0331457 8.81133 -0.000369412 8.65586 9.23571e-05 8.49867C-0.00197896 8.34123 0.0308131 8.18526 0.096166 8.04169C0.161519 7.89813 0.257848 7.77046 0.37839 7.66764L7.7828 0.342909C7.99595 0.128006 8.28623 0.00500488 8.59055 0.000642776Z" fill="white"/>
</svg>
