<svg width="27" height="22" viewBox="0 0 27 22" fill="none" xmlns="http://www.w3.org/2000/svg">
<path d="M8.34429 21.9845C18.3684 21.9845 23.8361 13.5222 23.8361 6.18732C23.8361 5.94571 23.8361 5.7072 23.8361 5.4687C24.9019 4.68305 25.8216 3.70961 26.5517 2.59423C25.5569 3.04458 24.501 3.33907 23.4199 3.46772C24.556 2.77386 25.4066 1.68313 25.8136 0.39811C24.7442 1.0431 23.5754 1.49869 22.3568 1.74552C21.5351 0.857023 20.4495 0.269084 19.2675 0.0725087C18.0855 -0.124066 16.8729 0.0816624 15.817 0.65791C14.7611 1.23416 13.9206 2.14887 13.4254 3.26078C12.9301 4.37269 12.8076 5.61995 13.0769 6.80991C10.9117 6.69911 8.79367 6.12536 6.86005 5.12588C4.92643 4.12641 3.2205 2.72354 1.85293 1.00832C1.15589 2.23052 0.942202 3.6778 1.25546 5.05511C1.56872 6.43241 2.38535 7.63604 3.53882 8.42061C2.67363 8.39403 1.8275 8.15495 1.07228 7.72368C1.07077 7.7474 1.07077 7.77119 1.07228 7.79491C1.07201 9.07753 1.50539 10.321 2.29941 11.3158C3.09344 12.3105 4.19955 12.9957 5.43124 13.2558C4.96366 13.3841 4.4817 13.4497 3.9975 13.4509C3.65386 13.4502 3.31104 13.416 2.97379 13.3487C3.32131 14.4518 3.9983 15.4166 4.91004 16.1081C5.82179 16.7996 6.92272 17.1831 8.05878 17.2051C6.13052 18.7489 3.74867 19.5858 1.29706 19.5809C0.863679 19.5811 0.430623 19.5563 0 19.5065C2.48925 21.1368 5.38587 22.0023 8.34429 22" fill="#36FFC0"/>
</svg>
