<svg width="26" height="22" viewBox="0 0 26 22" fill="none" xmlns="http://www.w3.org/2000/svg">
<path d="M25.9212 0.462907C25.9021 0.366078 25.859 0.275996 25.7963 0.201414C25.7336 0.126833 25.6533 0.0702718 25.5632 0.0372071C25.2238 -0.0308121 24.873 -0.00525179 24.5462 0.111267C24.5462 0.111267 1.95883 8.50662 0.666174 9.43573C0.390456 9.63562 0.308097 9.75407 0.250805 9.88733C0.0287986 10.5499 0.723468 10.8424 0.723468 10.8424L6.54577 12.8042C6.64223 12.8286 6.74293 12.8286 6.83939 12.8042C8.16427 11.938 20.1634 4.10535 20.858 3.84253C20.9655 3.80921 21.0478 3.84252 21.0263 3.92395C20.747 4.93081 10.3235 14.507 10.3235 14.507C10.2981 14.5415 10.2765 14.5787 10.259 14.6181L9.71832 20.5888C9.71832 20.5888 9.48915 22.4175 11.258 20.5888C12.5077 19.297 13.7144 18.2161 14.3196 17.6942C16.3212 19.123 18.4768 20.7036 19.4043 21.5291C19.561 21.6848 19.7463 21.8066 19.9492 21.8874C20.1521 21.9681 20.3686 22.0061 20.5859 21.9992C21.4668 21.9659 21.7139 20.9627 21.7139 20.9627C21.7139 20.9627 25.8317 3.83513 25.9678 1.5401C25.9678 1.318 26 1.16992 26 1.01816C26.0021 0.829945 25.9755 0.642564 25.9212 0.462907Z" fill="white"/>
</svg>
