<svg width="22" height="22" viewBox="0 0 22 22" fill="none" xmlns="http://www.w3.org/2000/svg">
<path d="M11 1.97907C13.9356 1.97907 14.2821 1.99201 15.4409 2.04375C16.1385 2.05222 16.8295 2.17996 17.4841 2.42145C17.9601 2.59979 18.391 2.88065 18.7463 3.24412C19.1114 3.59913 19.3924 4.03138 19.5688 4.50917C19.8113 5.16271 19.9391 5.85326 19.9464 6.55033C20.0007 7.70931 20.0111 8.05856 20.0111 10.9948C20.0111 13.9311 20.0111 14.2778 19.9464 15.4367C19.9391 16.1338 19.8113 16.8244 19.5688 17.4779C19.386 17.952 19.1061 18.3826 18.7471 18.7422C18.3881 19.1017 17.9579 19.3822 17.4841 19.5656C16.8295 19.8071 16.1385 19.9348 15.4409 19.9433C14.2821 19.9951 13.9356 20.008 11 20.008C8.06443 20.008 7.71785 19.9951 6.55914 19.9433C5.86151 19.9348 5.17046 19.8071 4.51587 19.5656C4.04211 19.3822 3.61192 19.1017 3.25292 18.7422C2.89391 18.3826 2.61403 17.952 2.43123 17.4779C2.1887 16.8244 2.06094 16.1338 2.05361 15.4367C1.99929 14.2778 1.98895 13.9285 1.98895 10.9948C1.98895 8.06115 1.98895 7.70931 2.05361 6.55033C2.06094 5.85326 2.1887 5.16271 2.43123 4.50917C2.60757 4.03138 2.88859 3.59913 3.25371 3.24412C3.60903 2.88065 4.03993 2.59979 4.51587 2.42145C5.17046 2.17996 5.86151 2.05222 6.55914 2.04375C7.71785 1.99201 8.06443 1.97907 11 1.97907ZM11 0C8.01529 0 7.63767 0 6.46861 0.0646755C5.55606 0.085202 4.65358 0.260143 3.79943 0.582079C3.06895 0.864111 2.40555 1.29591 1.85188 1.84972C1.2982 2.40352 0.866496 3.06709 0.584531 3.79774C0.261698 4.65092 0.086761 5.55293 0.0672491 6.46496C0.0129346 7.63947 0 8.01717 0 11C0 13.9828 2.52826e-06 14.3631 0.0672491 15.5325C0.0871721 16.4453 0.262091 17.3481 0.584531 18.2023C0.867078 18.9323 1.29901 19.5952 1.85263 20.1485C2.40626 20.7018 3.06936 21.1333 3.79943 21.4153C4.65322 21.7385 5.55592 21.9135 6.46861 21.9327C7.64025 21.9871 8.02046 22 11 22C13.9795 22 14.3623 21.9871 15.5314 21.9327C16.4441 21.9135 17.3468 21.7385 18.2006 21.4153C18.9306 21.1333 19.5937 20.7018 20.1474 20.1485C20.701 19.5952 21.1329 18.9323 21.4155 18.2023C21.7379 17.3481 21.9128 16.4453 21.9328 15.5325C21.9871 14.3605 22 13.9802 22 11C22 8.01976 22 7.63688 21.9328 6.46496C21.9132 5.55293 21.7383 4.65092 21.4155 3.79774C21.1335 3.06709 20.7018 2.40352 20.1481 1.84972C19.5944 1.29591 18.9311 0.864111 18.2006 0.582079C17.3464 0.260143 16.4439 0.085202 15.5314 0.0646755C14.3597 0.0103481 13.9795 0 11 0V0Z" fill="white"/>
<path d="M11.0026 5.3103C9.87715 5.30979 8.77686 5.64304 7.84086 6.26792C6.90486 6.89279 6.17519 7.78121 5.74415 8.82081C5.31312 9.86042 5.20007 11.0045 5.41931 12.1084C5.63856 13.2122 6.18023 14.2263 6.97584 15.0222C7.77144 15.8182 8.78524 16.3603 9.889 16.5801C10.9928 16.7998 12.1369 16.6873 13.1767 16.2568C14.2165 15.8262 15.1052 15.0969 15.7305 14.1612C16.3558 13.2255 16.6896 12.1254 16.6896 11C16.69 10.2529 16.5431 9.5131 16.2575 8.82282C15.9718 8.13253 15.553 7.50529 15.0248 6.97692C14.4967 6.44856 13.8697 6.02942 13.1795 5.74345C12.4894 5.45749 11.7496 5.3103 11.0026 5.3103V5.3103ZM11.0026 14.6932C10.272 14.6932 9.55786 14.4765 8.95046 14.0706C8.34307 13.6646 7.8697 13.0877 7.59025 12.4127C7.31079 11.7377 7.23782 10.995 7.38053 10.2785C7.52325 9.56201 7.87524 8.90395 8.392 8.38755C8.90877 7.87116 9.56707 7.51962 10.2837 7.37741C11.0002 7.2352 11.7429 7.30872 12.4177 7.58865C13.0925 7.86857 13.6691 8.34234 14.0746 8.95003C14.4801 9.55771 14.6963 10.272 14.6958 11.0026C14.6944 11.9812 14.3047 12.9192 13.6122 13.6107C12.9197 14.3022 11.9812 14.6905 11.0026 14.6905V14.6932Z" fill="white"/>
<path d="M17.0691 6.06908C17.6975 6.06908 18.207 5.55961 18.207 4.93114C18.207 4.30268 17.6975 3.79321 17.0691 3.79321C16.4406 3.79321 15.9312 4.30268 15.9312 4.93114C15.9312 5.55961 16.4406 6.06908 17.0691 6.06908Z" fill="white"/>
</svg>
