<svg width="26" height="22" viewBox="0 0 26 22" fill="none" xmlns="http://www.w3.org/2000/svg">
<path d="M25.7142 0.462907C25.695 0.366078 25.652 0.275996 25.5893 0.201414C25.5265 0.126833 25.4462 0.0702718 25.3561 0.0372071C25.0167 -0.0308121 24.666 -0.00525179 24.3392 0.111267C24.3392 0.111267 1.7518 8.50662 0.459143 9.43573C0.183425 9.63562 0.101066 9.75407 0.0437741 9.88733C-0.178233 10.5499 0.516436 10.8424 0.516436 10.8424L6.33874 12.8042C6.4352 12.8286 6.5359 12.8286 6.63236 12.8042C7.95724 11.938 19.9564 4.10535 20.651 3.84253C20.7584 3.80921 20.8408 3.84252 20.8193 3.92395C20.54 4.93081 10.1164 14.507 10.1164 14.507C10.091 14.5415 10.0694 14.5787 10.052 14.6181V14.6181L9.51129 20.5888C9.51129 20.5888 9.28212 22.4175 11.051 20.5888C12.3007 19.297 13.5074 18.2161 14.1126 17.6942C16.1142 19.123 18.2698 20.7036 19.1972 21.5291C19.354 21.6848 19.5393 21.8066 19.7422 21.8874C19.9451 21.9681 20.1616 22.0061 20.3789 21.9992C21.2598 21.9659 21.5068 20.9627 21.5068 20.9627C21.5068 20.9627 25.6247 3.83513 25.7608 1.5401C25.7608 1.318 25.793 1.16992 25.793 1.01816C25.7951 0.829945 25.7685 0.642564 25.7142 0.462907Z" fill="#36FFC0"/>
</svg>
