<svg width="30" height="22" viewBox="0 0 30 22" fill="none" xmlns="http://www.w3.org/2000/svg">
<path d="M25.0707 1.82368C23.1831 0.979578 21.1589 0.357681 19.0426 0.00149416C19.004 -0.00538013 18.9655 0.0117991 18.9457 0.0461583C18.6853 0.497402 18.397 1.08609 18.1951 1.54879C15.9188 1.21666 13.6542 1.21666 11.4245 1.54879C11.2226 1.0758 10.9237 0.497402 10.6622 0.0461583C10.6424 0.0129455 10.6039 -0.00423374 10.5654 0.00149416C8.45014 0.356542 6.426 0.978439 4.53724 1.82368C4.52089 1.83055 4.50688 1.84201 4.49758 1.85689C0.658192 7.44714 -0.393576 12.9 0.122386 18.2852C0.12472 18.3116 0.139896 18.3368 0.160908 18.3528C2.69402 20.1658 5.14778 21.2664 7.55597 21.996C7.59451 22.0075 7.63535 21.9937 7.65987 21.9628C8.22953 21.2046 8.73733 20.4052 9.17272 19.5645C9.19841 19.5153 9.17389 19.4569 9.12137 19.4374C8.31592 19.1396 7.54896 18.7765 6.81121 18.3642C6.75285 18.331 6.74818 18.2497 6.80186 18.2107C6.95711 18.0974 7.11241 17.9794 7.26065 17.8603C7.28747 17.8385 7.32484 17.8339 7.35638 17.8477C12.2031 20.0043 17.4503 20.0043 22.2399 17.8477C22.2714 17.8328 22.3088 17.8374 22.3368 17.8591C22.485 17.9783 22.6403 18.0974 22.7967 18.2107C22.8504 18.2497 22.8469 18.331 22.7885 18.3642C22.0508 18.7845 21.2838 19.1396 20.4772 19.4362C20.4247 19.4557 20.4013 19.5153 20.427 19.5645C20.8718 20.404 21.3796 21.2034 21.9387 21.9616C21.9621 21.9937 22.0041 22.0075 22.0426 21.996C24.4625 21.2664 26.9162 20.1658 29.4493 18.3528C29.4715 18.3368 29.4855 18.3127 29.4879 18.2864C30.1054 12.0604 28.4536 6.65231 25.1092 1.85803C25.101 1.84201 25.087 1.83055 25.0707 1.82368ZM9.8965 15.0062C8.4373 15.0062 7.23496 13.7005 7.23496 12.0971C7.23496 10.4937 8.41398 9.18803 9.8965 9.18803C11.3907 9.18803 12.5814 10.5051 12.558 12.0971C12.558 13.7005 11.379 15.0062 9.8965 15.0062ZM19.7371 15.0062C18.2779 15.0062 17.0756 13.7005 17.0756 12.0971C17.0756 10.4937 18.2546 9.18803 19.7371 9.18803C21.2313 9.18803 22.422 10.5051 22.3987 12.0971C22.3987 13.7005 21.2313 15.0062 19.7371 15.0062Z" fill="#36FFC0"/>
</svg>
