<svg xmlns="http://www.w3.org/2000/svg" width="18" height="18" viewBox="0 0 18 18">
    <defs>
        <clipPath id="clip-path">
            <path id="Path_504" d="M17.3-10.492a1.019 1.019 0 0 0 .545-.147 1.12 1.12 0 0 0 .382-.388 1.064 1.064 0 0 0 .143-.554 1.126 1.126 0 0 0-.076-.407.932.932 0 0 0-.239-.35L13.564-16.8l.09-.117a7.449 7.449 0 0 0 .727-1.208l.119-.26a6.989 6.989 0 0 0 .573-2.822 6.989 6.989 0 0 0-.573-2.822 7.391 7.391 0 0 0-1.586-2.32 7.464 7.464 0 0 0-2.341-1.572 7.186 7.186 0 0 0-2.857-.568 7.172 7.172 0 0 0-2.842.568 7.489 7.489 0 0 0-2.346 1.567 7.32 7.32 0 0 0-1.586 2.32 7.022 7.022 0 0 0-.573 2.826 6.989 6.989 0 0 0 .573 2.822 7.448 7.448 0 0 0 1.586 2.325 7.424 7.424 0 0 0 2.341 1.577 7.162 7.162 0 0 0 2.847.568 7.186 7.186 0 0 0 2.857-.568 7.536 7.536 0 0 0 1.249-.678l.17-.119 4.514 4.481a1.036 1.036 0 0 0 .268.194l.1.043a1.219 1.219 0 0 0 .426.071zM7.716-15.5a5.53 5.53 0 0 1-2.217-.45 5.969 5.969 0 0 1-1.839-1.236A5.746 5.746 0 0 1 2.414-19a5.469 5.469 0 0 1-.449-2.206 5.469 5.469 0 0 1 .449-2.206 5.746 5.746 0 0 1 1.247-1.818A5.9 5.9 0 0 1 5.5-26.466a5.581 5.581 0 0 1 2.217-.445 5.6 5.6 0 0 1 2.226.445 5.842 5.842 0 0 1 1.834 1.231 5.852 5.852 0 0 1 1.247 1.818 5.42 5.42 0 0 1 .454 2.206A5.42 5.42 0 0 1 13.024-19a5.852 5.852 0 0 1-1.247 1.818 5.91 5.91 0 0 1-1.834 1.236 5.554 5.554 0 0 1-2.227.446z" class="cls-1" transform="translate(-0.369 28.492)"/>
        </clipPath>
        <style>
            .cls-1{fill:#fff}
        </style>
    </defs>
    <g id="search" clip-path="url(#clip-path)" opacity="0.5">
        <path id="Path_503" d="M-.631-29.492h19.3V-10.2h-19.3z" class="cls-1" transform="translate(-0.021 28.846)"/>
    </g>
</svg>
