<svg width="17" height="15" viewBox="0 0 17 15" fill="none" xmlns="http://www.w3.org/2000/svg">
<path d="M6.34544 11.0295H14.3309C14.5051 11.0295 14.6576 10.9679 14.7883 10.8447C14.9189 10.7215 14.9843 10.5613 14.9843 10.3642C14.9843 10.172 14.9189 10.0168 14.7883 9.89854C14.6576 9.77534 14.5051 9.71375 14.3309 9.71375H6.51241C6.36238 9.71375 6.23896 9.662 6.14217 9.55852C6.05022 9.45504 5.98972 9.31952 5.96068 9.15197L4.87901 1.51628C4.83546 1.2009 4.73382 0.964363 4.57411 0.806672C4.41924 0.644054 4.14338 0.562744 3.74653 0.562744H1.41622C1.23231 0.562744 1.07018 0.634198 0.929829 0.777105C0.794318 0.920013 0.726562 1.08756 0.726562 1.27975C0.726562 1.47193 0.794318 1.63948 0.929829 1.78239C1.07018 1.92036 1.23231 1.98935 1.41622 1.98935H3.51422L4.55959 9.29981C4.63703 9.83694 4.82094 10.2607 5.11132 10.5712C5.4017 10.8767 5.81307 11.0295 6.34544 11.0295ZM5.16939 8.43497H14.4035C14.9359 8.43497 15.3473 8.28221 15.6376 7.97668C15.928 7.66623 16.1119 7.23751 16.1894 6.69052L16.6903 3.26074C16.6999 3.21146 16.7072 3.15972 16.712 3.10551C16.7217 3.04638 16.7266 2.9971 16.7266 2.95768C16.7266 2.74578 16.6564 2.5733 16.516 2.44025C16.3757 2.30227 16.1797 2.23328 15.928 2.23328H4.54507L4.55959 3.54902H15.2093L14.7955 6.57225C14.7665 6.73979 14.7084 6.87285 14.6213 6.9714C14.5342 7.06996 14.4108 7.11924 14.2511 7.11924H5.16213L5.16939 8.43497ZM6.91168 14.5627C7.2553 14.5627 7.54568 14.442 7.78282 14.2005C8.01997 13.9591 8.13854 13.6659 8.13854 13.3209C8.13854 12.976 8.01997 12.6828 7.78282 12.4413C7.54568 12.1998 7.2553 12.0791 6.91168 12.0791C6.5729 12.0791 6.28252 12.1998 6.04054 12.4413C5.80339 12.6828 5.68482 12.976 5.68482 13.3209C5.68482 13.6659 5.80339 13.9591 6.04054 14.2005C6.28252 14.442 6.5729 14.5627 6.91168 14.5627ZM13.242 14.5627C13.5808 14.5627 13.8687 14.442 14.1059 14.2005C14.343 13.9591 14.4616 13.6659 14.4616 13.3209C14.4616 12.976 14.343 12.6828 14.1059 12.4413C13.8687 12.1998 13.5808 12.0791 13.242 12.0791C12.8984 12.0791 12.6056 12.1998 12.3636 12.4413C12.1216 12.6828 12.0006 12.976 12.0006 13.3209C12.0006 13.6659 12.1216 13.9591 12.3636 14.2005C12.6056 14.442 12.8984 14.5627 13.242 14.5627Z" fill="#36FFC0"/>
</svg>
